<svg xmlns="http://www.w3.org/2000/svg" xmlns:xlink="http://www.w3.org/1999/xlink" preserveAspectRatio="xMidYMid" width="25.03" height="30" viewBox="0 0 25.03 30">
 <path d="M25.013,25.471 C24.935,25.861 24.614,26.139 24.243,26.139 L16.719,26.139 C16.565,27.050 16.164,27.899 15.550,28.585 C14.735,29.497 13.657,30.000 12.515,30.000 C11.374,30.000 10.296,29.497 9.481,28.585 C8.867,27.899 8.466,27.051 8.312,26.139 L0.788,26.139 C0.417,26.139 0.096,25.861 0.018,25.471 C-0.060,25.082 0.125,24.686 0.463,24.522 C3.431,23.082 3.544,16.902 3.546,16.747 L3.546,12.600 C3.546,8.610 5.816,5.179 9.042,3.718 C9.049,1.667 10.604,-0.000 12.516,-0.000 C14.427,-0.000 15.982,1.667 15.989,3.718 C19.215,5.179 21.484,8.610 21.484,12.601 L21.484,16.747 C21.487,16.903 21.600,23.083 24.567,24.522 C24.906,24.686 25.091,25.082 25.013,25.471 ZM12.516,28.308 C13.718,28.308 14.766,27.377 15.103,26.139 L9.928,26.139 C10.264,27.377 11.314,28.308 12.516,28.308 ZM12.516,1.692 C11.651,1.692 10.920,2.316 10.691,3.166 C11.281,3.035 11.891,2.966 12.516,2.966 C13.140,2.966 13.750,3.035 14.340,3.166 C14.111,2.316 13.380,1.692 12.516,1.692 ZM19.910,16.759 L19.910,12.600 C19.910,8.221 16.593,4.658 12.516,4.658 C8.438,4.658 5.122,8.221 5.122,12.600 L5.122,16.752 C5.121,16.882 5.102,18.222 4.788,19.870 L20.243,19.870 C19.929,18.223 19.911,16.886 19.910,16.759 ZM20.658,21.562 L4.373,21.562 C4.061,22.578 3.619,23.598 2.993,24.447 L22.038,24.447 C21.412,23.598 20.970,22.578 20.658,21.562 ZM12.516,5.845 C12.950,5.845 13.303,6.223 13.303,6.691 C13.303,7.158 12.951,7.537 12.516,7.537 C9.996,7.537 7.946,9.739 7.946,12.445 C7.946,12.913 7.593,13.291 7.158,13.291 C6.723,13.291 6.371,12.913 6.371,12.445 C6.371,8.806 9.127,5.845 12.516,5.845 Z" />
</svg>
