<svg xmlns="http://www.w3.org/2000/svg" xmlns:xlink="http://www.w3.org/1999/xlink" preserveAspectRatio="xMidYMid" width="48" height="44" viewBox="0 0 48 44">
  <path d="M44.985,44.000 L3.015,44.000 C1.352,44.000 -0.000,42.618 -0.000,40.918 C-0.000,39.519 0.906,38.337 2.163,37.963 C2.303,31.858 4.372,25.886 8.170,20.649 C11.079,16.638 14.901,13.313 18.939,11.224 C18.857,11.099 18.809,10.949 18.809,10.787 C18.809,10.355 19.152,10.004 19.575,10.004 L20.616,10.004 L16.459,1.120 C16.345,0.878 16.361,0.593 16.502,0.365 C16.642,0.138 16.887,-0.000 17.150,-0.000 L30.850,-0.000 C31.113,-0.000 31.358,0.138 31.498,0.365 C31.639,0.593 31.655,0.878 31.541,1.120 L27.384,10.004 L28.424,10.004 C28.848,10.004 29.190,10.355 29.190,10.787 C29.190,10.949 29.142,11.099 29.060,11.224 C33.099,13.313 36.921,16.638 39.830,20.649 C43.628,25.886 45.697,31.858 45.836,37.963 C47.094,38.337 48.000,39.519 48.000,40.918 C48.000,42.618 46.647,44.000 44.985,44.000 ZM29.635,1.566 L22.579,1.566 L22.579,2.871 C22.579,3.303 22.236,3.654 21.813,3.654 C21.390,3.654 21.047,3.303 21.047,2.871 L21.047,1.566 L18.365,1.566 L22.314,10.004 L25.686,10.004 L29.635,1.566 ZM45.061,39.407 L43.036,39.407 C42.613,39.407 42.270,39.056 42.270,38.624 C42.270,38.192 42.613,37.841 43.036,37.841 L44.300,37.841 C43.935,25.126 34.738,14.887 26.029,11.570 L21.971,11.570 C13.262,14.887 4.065,25.126 3.700,37.841 L4.964,37.841 C5.387,37.841 5.730,38.192 5.730,38.624 C5.730,39.056 5.387,39.407 4.964,39.407 L2.939,39.407 C2.149,39.448 1.532,40.109 1.532,40.918 C1.532,41.754 2.197,42.434 3.015,42.434 L44.985,42.434 C45.803,42.434 46.468,41.754 46.468,40.918 C46.468,40.109 45.851,39.448 45.061,39.407 ZM39.972,39.407 L33.845,39.407 C33.422,39.407 33.079,39.056 33.079,38.624 C33.079,38.192 33.422,37.841 33.845,37.841 L39.972,37.841 C40.395,37.841 40.738,38.192 40.738,38.624 C40.738,39.056 40.395,39.407 39.972,39.407 ZM29.587,28.506 C29.587,30.861 27.680,32.503 24.766,32.747 L24.766,33.997 C24.766,34.429 24.423,34.780 24.000,34.780 C23.577,34.780 23.234,34.429 23.234,33.997 L23.234,32.747 C20.320,32.503 18.413,30.861 18.413,28.506 C18.413,28.074 18.756,27.723 19.179,27.723 C19.602,27.723 19.945,28.074 19.945,28.506 C19.945,30.236 21.581,30.999 23.234,31.173 L23.234,25.681 C20.941,25.275 18.413,24.588 18.413,21.532 C18.413,19.177 20.320,17.535 23.234,17.291 L23.234,16.041 C23.234,15.608 23.577,15.258 24.000,15.258 C24.423,15.258 24.766,15.608 24.766,16.041 L24.766,17.291 C27.680,17.535 29.587,19.177 29.587,21.532 C29.587,21.964 29.244,22.315 28.821,22.315 C28.398,22.315 28.055,21.964 28.055,21.532 C28.055,19.802 26.419,19.039 24.766,18.865 L24.766,24.355 C27.059,24.761 29.587,25.448 29.587,28.506 ZM24.766,31.173 C26.419,30.999 28.055,30.236 28.055,28.506 C28.055,26.890 26.997,26.377 24.766,25.949 L24.766,31.173 ZM23.234,18.865 C21.581,19.039 19.945,19.802 19.945,21.532 C19.945,23.146 21.003,23.659 23.234,24.087 L23.234,18.865 Z" class="cls-1"/>
</svg>
