<svg xmlns="http://www.w3.org/2000/svg" xmlns:xlink="http://www.w3.org/1999/xlink" preserveAspectRatio="xMidYMid" width="19" height="19" viewBox="0 0 19 19">
<path d="M17.977,1.023 C17.318,0.363 16.442,-0.000 15.509,-0.000 C14.578,-0.000 13.701,0.362 13.043,1.021 L2.550,11.454 C2.488,11.515 2.440,11.590 2.411,11.672 L0.036,18.203 C-0.041,18.414 0.008,18.652 0.163,18.816 C0.277,18.935 0.433,19.000 0.594,19.000 C0.652,19.000 0.710,18.992 0.768,18.974 L6.675,17.162 C6.767,17.134 6.852,17.083 6.921,17.015 L17.977,5.958 C18.637,5.300 19.000,4.422 19.000,3.490 C18.999,2.558 18.637,1.681 17.977,1.023 ZM5.993,16.129 L3.782,16.808 C3.653,16.430 3.452,16.095 3.178,15.821 C2.940,15.584 2.664,15.400 2.373,15.251 L3.384,12.469 L4.750,12.469 L4.750,13.656 C4.750,13.984 5.015,14.250 5.344,14.250 L6.392,14.250 L5.993,16.129 ZM14.732,7.523 L7.498,14.758 L7.706,13.780 C7.743,13.604 7.699,13.422 7.586,13.283 C7.473,13.143 7.304,13.062 7.125,13.062 L5.937,13.062 L5.937,11.875 C5.937,11.547 5.671,11.281 5.344,11.281 L4.407,11.281 L11.469,4.260 L11.475,4.267 C11.911,3.831 12.489,3.592 13.104,3.592 C13.719,3.592 14.298,3.831 14.732,4.267 C15.166,4.702 15.407,5.280 15.407,5.895 C15.407,6.510 15.168,7.088 14.732,7.523 ZM17.138,5.119 L16.583,5.673 C16.530,4.824 16.178,4.033 15.572,3.427 C14.966,2.820 14.174,2.469 13.323,2.416 L13.880,1.863 L13.881,1.862 C14.316,1.427 14.894,1.187 15.509,1.187 C16.125,1.187 16.703,1.427 17.138,1.862 C17.572,2.297 17.812,2.875 17.812,3.490 C17.812,4.106 17.574,4.684 17.138,5.119 ZM13.236,4.924 L7.299,10.861 C7.067,11.093 7.067,11.469 7.299,11.701 C7.415,11.817 7.567,11.875 7.719,11.875 C7.871,11.875 8.022,11.817 8.138,11.701 L14.076,5.763 C14.308,5.531 14.308,5.156 14.076,4.924 C13.844,4.692 13.468,4.692 13.236,4.924 Z" />
</svg>
