<svg xmlns="http://www.w3.org/2000/svg" xmlns:xlink="http://www.w3.org/1999/xlink" preserveAspectRatio="xMidYMid" width="9" height="9" viewBox="0 0 9 9">
 
  <path d="M8.625,9.000 L5.625,9.000 C5.419,9.000 5.250,8.828 5.250,8.619 L5.250,5.577 C5.250,5.368 5.419,5.197 5.625,5.197 L8.625,5.197 C8.831,5.197 9.000,5.368 9.000,5.577 L9.000,8.619 C9.000,8.828 8.831,9.000 8.625,9.000 ZM8.250,5.957 L6.000,5.957 L6.000,8.239 L8.250,8.239 L8.250,5.957 ZM8.625,3.802 L5.625,3.802 C5.419,3.802 5.250,3.631 5.250,3.422 L5.250,0.380 C5.250,0.171 5.419,-0.000 5.625,-0.000 L8.625,-0.000 C8.831,-0.000 9.000,0.171 9.000,0.380 L9.000,3.422 C9.000,3.631 8.831,3.802 8.625,3.802 ZM8.250,0.760 L6.000,0.760 L6.000,3.042 L8.250,3.042 L8.250,0.760 ZM3.375,9.000 L0.375,9.000 C0.169,9.000 -0.000,8.828 -0.000,8.619 L-0.000,5.577 C-0.000,5.368 0.169,5.197 0.375,5.197 L3.375,5.197 C3.581,5.197 3.750,5.368 3.750,5.577 L3.750,8.619 C3.750,8.828 3.581,9.000 3.375,9.000 ZM3.000,5.957 L0.750,5.957 L0.750,8.239 L3.000,8.239 L3.000,5.957 ZM3.375,3.802 L0.375,3.802 C0.169,3.802 -0.000,3.631 -0.000,3.422 L-0.000,0.380 C-0.000,0.171 0.169,-0.000 0.375,-0.000 L3.375,-0.000 C3.581,-0.000 3.750,0.171 3.750,0.380 L3.750,3.422 C3.750,3.631 3.581,3.802 3.375,3.802 ZM3.000,0.760 L0.750,0.760 L0.750,3.042 L3.000,3.042 L3.000,0.760 Z"/>
</svg>
