<svg xmlns="http://www.w3.org/2000/svg" xmlns:xlink="http://www.w3.org/1999/xlink" preserveAspectRatio="xMidYMid" width="20" height="24" viewBox="0 0 20 24">
  <path d="M19.997,17.808 C19.997,18.227 19.654,18.569 19.235,18.569 L17.677,18.569 C17.649,18.569 17.619,18.566 17.589,18.562 L17.589,20.451 L0.689,20.451 C0.667,20.826 0.652,22.062 1.300,22.782 C1.629,23.147 2.099,23.333 2.696,23.333 L16.827,23.333 C16.877,23.333 16.915,23.295 16.915,23.245 L16.915,22.228 L2.624,22.228 L2.624,21.556 L17.589,21.567 L17.589,23.245 C17.589,23.663 17.247,24.005 16.827,24.005 L2.696,24.005 C1.899,24.005 1.259,23.744 0.797,23.228 C-0.141,22.183 0.003,20.492 0.022,20.304 L0.022,-0.005 L17.590,-0.005 L17.590,1.479 C17.619,1.474 17.649,1.472 17.677,1.472 L19.235,1.472 C19.655,1.472 19.997,1.814 19.997,2.233 L19.997,6.722 C19.997,6.923 19.918,7.113 19.780,7.253 C19.918,7.394 19.997,7.583 19.997,7.783 L19.997,12.274 C19.997,12.468 19.921,12.656 19.788,12.795 C19.920,12.936 19.997,13.121 19.997,13.317 L19.997,17.808 ZM16.915,0.668 L0.696,0.668 L0.703,19.779 L0.730,19.779 L0.784,19.779 L16.915,19.779 L16.915,0.668 ZM19.323,2.233 C19.323,2.183 19.284,2.145 19.235,2.145 L17.677,2.145 C17.629,2.145 17.590,2.183 17.590,2.233 L17.590,6.722 C17.590,6.771 17.629,6.811 17.677,6.811 L19.235,6.811 C19.284,6.811 19.323,6.771 19.323,6.722 L19.323,2.233 ZM19.323,7.783 C19.323,7.734 19.284,7.695 19.235,7.695 L17.677,7.695 C17.629,7.695 17.590,7.734 17.590,7.783 L17.590,12.274 C17.590,12.322 17.629,12.362 17.677,12.362 L19.235,12.362 C19.284,12.362 19.323,12.322 19.323,12.274 L19.323,7.783 ZM19.323,13.316 C19.323,13.268 19.284,13.229 19.235,13.229 L17.677,13.229 C17.629,13.229 17.590,13.268 17.590,13.316 L17.590,17.808 C17.590,17.855 17.629,17.895 17.677,17.895 L19.235,17.895 C19.284,17.895 19.323,17.855 19.323,17.808 L19.323,13.316 ZM9.830,5.583 C12.260,5.583 13.892,7.283 13.892,9.609 C13.892,11.697 12.721,12.922 11.409,12.922 C10.850,12.922 10.333,12.547 10.375,11.697 L10.320,11.697 C9.830,12.519 9.189,12.922 8.352,12.922 C7.541,12.922 6.844,12.268 6.844,11.168 C6.844,9.442 8.212,7.868 10.152,7.868 C10.753,7.868 11.283,7.993 11.646,8.161 L11.171,10.680 C10.961,11.739 11.130,12.226 11.589,12.240 C12.303,12.254 13.096,11.307 13.096,9.691 C13.096,7.671 11.882,6.223 9.719,6.223 C7.444,6.223 5.531,8.021 5.531,10.847 C5.531,13.174 7.053,14.608 9.118,14.608 C9.913,14.608 10.654,14.440 11.226,14.120 L11.449,14.720 C10.682,15.123 9.900,15.276 8.965,15.276 C6.675,15.276 4.735,13.606 4.736,10.931 C4.736,8.062 6.731,5.583 9.830,5.583 ZM9.983,8.605 C8.755,8.605 7.764,9.761 7.764,11.113 C7.764,11.725 8.071,12.171 8.685,12.171 C9.495,12.171 10.235,11.140 10.389,10.276 L10.682,8.703 C10.543,8.661 10.305,8.605 9.983,8.605 Z" class="cls-1"/>
</svg>
