<svg xmlns="http://www.w3.org/2000/svg" xmlns:xlink="http://www.w3.org/1999/xlink" preserveAspectRatio="xMidYMid" width="18" height="23" viewBox="0 0 18 23">
  <path d="M0.000,4.188 L0.000,2.737 M0.004,1.859 C0.062,0.824 0.900,-0.000 1.922,-0.000 L16.078,-0.000 C17.138,-0.000 17.999,0.885 17.999,1.974 L17.999,21.026 C17.999,22.114 17.138,23.000 16.078,23.000 L1.922,23.000 C0.900,23.000 0.062,22.176 0.004,21.140 M0.000,20.263 L0.000,21.367 M0.000,20.490 L0.000,19.038 M0.000,18.161 L0.000,16.709 M0.000,15.832 L0.000,14.381 M0.000,13.503 L0.000,12.052 M0.000,11.174 L0.000,9.723 M0.000,8.846 L0.000,7.394 M0.000,6.517 L0.000,5.065 M0.860,21.141 L0.860,21.140 C0.916,21.691 1.371,22.123 1.921,22.123 L16.078,22.123 C16.667,22.123 17.146,21.631 17.146,21.026 L17.146,1.974 C17.146,1.369 16.667,0.877 16.078,0.877 L1.922,0.877 C1.371,0.877 0.916,1.308 0.860,1.860 M0.854,2.737 L0.854,4.188 M0.854,5.066 L0.854,6.517 M0.854,7.394 L0.854,8.846 M0.854,9.723 L0.854,11.175 M0.854,12.052 L0.854,13.504 M0.854,14.381 L0.854,15.832 M0.854,16.710 L0.854,18.161 M0.854,19.039 L0.854,20.490 M0.854,21.367 L0.854,20.263 M3.678,19.451 C3.565,19.451 3.456,19.404 3.376,19.321 L2.590,18.509 C2.424,18.337 2.424,18.059 2.592,17.888 C2.759,17.718 3.029,17.718 3.196,17.890 L3.649,18.359 L4.970,16.714 C5.120,16.527 5.389,16.501 5.571,16.655 C5.753,16.809 5.779,17.086 5.629,17.273 L4.008,19.291 C3.931,19.387 3.819,19.444 3.698,19.450 C3.692,19.450 3.685,19.451 3.678,19.451 ZM15.140,18.441 L7.851,18.441 C7.616,18.441 7.424,18.245 7.424,18.003 C7.424,17.760 7.616,17.564 7.851,17.564 L15.140,17.564 C15.376,17.564 15.567,17.760 15.567,18.003 C15.567,18.245 15.376,18.441 15.140,18.441 ZM3.678,14.755 C3.565,14.755 3.456,14.708 3.376,14.625 L2.590,13.813 C2.424,13.641 2.424,13.363 2.592,13.192 C2.759,13.022 3.029,13.022 3.196,13.194 L3.649,13.663 L4.970,12.018 C5.120,11.831 5.389,11.805 5.571,11.959 C5.753,12.113 5.779,12.389 5.629,12.576 L4.008,14.595 C3.931,14.691 3.819,14.748 3.698,14.754 C3.692,14.754 3.685,14.755 3.678,14.755 ZM15.140,13.745 L7.851,13.745 C7.616,13.745 7.424,13.549 7.424,13.306 C7.424,13.064 7.616,12.868 7.851,12.868 L15.140,12.868 C15.376,12.868 15.567,13.064 15.567,13.306 C15.567,13.549 15.376,13.745 15.140,13.745 ZM3.678,10.058 C3.565,10.058 3.456,10.012 3.376,9.929 L2.590,9.117 C2.424,8.945 2.424,8.667 2.592,8.496 C2.759,8.326 3.029,8.326 3.196,8.498 L3.649,8.967 L4.970,7.322 C5.120,7.135 5.389,7.109 5.571,7.263 C5.753,7.417 5.779,7.693 5.629,7.880 L4.008,9.899 C3.931,9.994 3.819,10.053 3.698,10.058 C3.692,10.058 3.685,10.058 3.678,10.058 ZM15.140,9.049 L7.851,9.049 C7.616,9.049 7.424,8.853 7.424,8.610 C7.424,8.368 7.616,8.172 7.851,8.172 L15.140,8.172 C15.376,8.172 15.567,8.368 15.567,8.610 C15.567,8.853 15.376,9.049 15.140,9.049 ZM3.678,5.362 C3.565,5.362 3.456,5.316 3.376,5.233 L2.590,4.420 C2.424,4.248 2.424,3.971 2.592,3.800 C2.759,3.629 3.029,3.630 3.196,3.802 L3.649,4.271 L4.970,2.626 C5.120,2.439 5.389,2.413 5.571,2.567 C5.753,2.721 5.779,2.997 5.629,3.184 L4.008,5.203 C3.931,5.298 3.819,5.356 3.698,5.362 C3.692,5.362 3.685,5.362 3.678,5.362 ZM15.140,4.353 L7.851,4.353 C7.616,4.353 7.424,4.157 7.424,3.914 C7.424,3.672 7.616,3.476 7.851,3.476 L15.140,3.476 C15.376,3.476 15.567,3.672 15.567,3.914 C15.567,4.157 15.376,4.353 15.140,4.353 Z" class="cls-1"/>
</svg>
