<svg xmlns="http://www.w3.org/2000/svg" xmlns:xlink="http://www.w3.org/1999/xlink" preserveAspectRatio="xMidYMid" width="22" height="18" viewBox="0 0 22 18">
  <path d="M20.863,18.000 L6.118,18.000 C5.491,18.000 4.981,17.495 4.981,16.874 L4.981,11.377 L1.137,11.377 C0.510,11.377 -0.000,10.872 -0.000,10.252 L-0.000,1.125 C-0.000,0.505 0.510,-0.000 1.137,-0.000 L15.882,-0.000 C16.509,-0.000 17.019,0.505 17.019,1.125 L17.019,6.622 L20.863,6.622 C21.490,6.622 22.000,7.127 22.000,7.748 L22.000,16.874 C22.000,17.495 21.490,18.000 20.863,18.000 ZM16.071,1.125 C16.071,1.022 15.986,0.938 15.882,0.938 L1.137,0.938 C1.033,0.938 0.948,1.022 0.948,1.125 L0.948,1.924 L16.071,1.924 L16.071,1.125 ZM16.071,2.862 L0.948,2.862 L0.948,4.250 L16.071,4.250 L16.071,2.862 ZM16.071,5.188 L0.948,5.188 L0.948,10.252 C0.948,10.355 1.033,10.440 1.137,10.440 L4.981,10.440 L4.981,7.748 C4.981,7.127 5.491,6.622 6.118,6.622 L16.071,6.622 L16.071,5.188 ZM21.052,7.748 C21.052,7.644 20.967,7.560 20.863,7.560 L6.118,7.560 C6.014,7.560 5.928,7.644 5.928,7.748 L5.928,16.874 C5.928,16.978 6.014,17.062 6.118,17.062 L20.863,17.062 C20.967,17.062 21.052,16.978 21.052,16.874 L21.052,7.748 ZM18.320,16.348 C17.994,16.348 17.684,16.260 17.414,16.095 C17.145,16.260 16.834,16.348 16.509,16.348 C15.554,16.348 14.777,15.579 14.777,14.634 C14.777,13.689 15.554,12.920 16.509,12.920 C16.834,12.920 17.145,13.008 17.414,13.172 C17.684,13.008 17.994,12.920 18.320,12.920 C19.275,12.920 20.052,13.689 20.052,14.634 C20.052,15.579 19.275,16.348 18.320,16.348 ZM18.320,13.858 C18.105,13.858 17.905,13.942 17.755,14.096 C17.666,14.187 17.543,14.239 17.414,14.239 C17.286,14.239 17.162,14.187 17.073,14.096 C16.924,13.942 16.723,13.858 16.509,13.858 C16.076,13.858 15.724,14.206 15.724,14.634 C15.724,15.062 16.076,15.410 16.509,15.410 C16.723,15.410 16.924,15.325 17.073,15.172 C17.162,15.080 17.286,15.028 17.414,15.028 C17.543,15.028 17.666,15.080 17.755,15.172 C17.905,15.325 18.105,15.410 18.320,15.410 C18.752,15.410 19.104,15.062 19.104,14.634 C19.104,14.206 18.752,13.858 18.320,13.858 ZM17.366,10.698 L15.554,10.698 C15.293,10.698 15.080,10.489 15.080,10.229 C15.080,9.971 15.293,9.761 15.554,9.761 L17.366,9.761 C17.627,9.761 17.839,9.971 17.839,10.229 C17.839,10.489 17.627,10.698 17.366,10.698 ZM13.592,10.698 L7.781,10.698 C7.519,10.698 7.307,10.489 7.307,10.229 C7.307,9.971 7.519,9.761 7.781,9.761 L13.592,9.761 C13.854,9.761 14.066,9.971 14.066,10.229 C14.066,10.489 13.854,10.698 13.592,10.698 Z" class="cls-1"/>
</svg>
