<svg xmlns="http://www.w3.org/2000/svg" xmlns:xlink="http://www.w3.org/1999/xlink" preserveAspectRatio="xMidYMid" width="21.969" height="20" viewBox="0 0 21.969 20">
  <path d="M21.788,11.148 C21.661,11.248 21.512,11.305 21.339,11.305 C21.143,11.305 20.993,11.248 20.890,11.148 L10.991,1.472 L1.068,11.058 C0.819,11.298 0.423,11.315 0.193,11.058 C-0.072,10.837 -0.055,10.452 0.193,10.212 L10.542,0.190 C10.668,0.069 10.818,-0.000 10.991,-0.000 C11.140,-0.000 11.290,0.066 11.416,0.190 L15.537,4.204 L15.537,2.107 C15.537,1.762 15.814,1.496 16.148,1.496 C16.504,1.496 16.792,1.762 16.792,2.107 L16.792,5.419 L21.788,10.278 C22.036,10.521 22.018,10.925 21.788,11.148 ZM3.612,10.100 C3.969,10.100 4.245,10.368 4.245,10.692 L4.245,18.794 L8.723,18.794 L8.723,15.372 C8.723,15.051 9.010,14.770 9.368,14.770 L12.613,14.770 C12.947,14.770 13.224,15.051 13.224,15.372 L13.224,18.794 L17.713,18.794 L17.713,10.414 C17.713,10.066 17.989,9.800 18.346,9.800 C18.680,9.800 18.956,10.066 18.956,10.414 L18.956,19.408 C18.956,19.731 18.680,20.000 18.346,20.000 L12.613,20.000 C12.257,20.000 11.980,19.731 11.980,19.408 L11.980,15.986 L9.978,15.986 L9.978,19.408 C9.978,19.731 9.701,20.000 9.368,20.000 L3.612,20.000 C3.278,20.000 3.002,19.731 3.002,19.408 L3.002,10.692 C3.002,10.368 3.278,10.100 3.612,10.100 Z" />
</svg>
