<svg xmlns="http://www.w3.org/2000/svg" xmlns:xlink="http://www.w3.org/1999/xlink" preserveAspectRatio="xMidYMid" width="20" height="20" viewBox="0 0 20 20">
  <path d="M10.000,13.750 C13.102,13.750 15.625,10.665 15.625,6.875 C15.625,3.085 13.101,-0.000 10.000,-0.000 C8.471,-0.000 7.041,0.733 5.976,2.066 C4.943,3.356 4.375,5.065 4.375,6.876 C4.375,10.665 6.898,13.750 10.000,13.750 ZM10.000,1.250 C12.412,1.250 14.375,3.774 14.375,6.876 C14.375,9.977 12.412,12.500 10.000,12.500 C7.588,12.500 5.625,9.977 5.624,6.876 C5.624,3.774 7.588,1.250 10.000,1.250 ZM14.375,12.500 C14.029,12.500 13.750,12.779 13.750,13.125 C13.750,13.470 14.029,13.750 14.375,13.750 C16.787,13.750 18.750,15.713 18.750,18.125 C18.750,18.469 18.469,18.750 18.125,18.750 L1.875,18.750 C1.531,18.750 1.250,18.469 1.250,18.125 C1.250,15.713 3.213,13.750 5.625,13.750 C5.971,13.750 6.250,13.470 6.250,13.125 C6.250,12.779 5.971,12.500 5.625,12.500 C2.523,12.500 -0.000,15.023 -0.000,18.125 C-0.000,19.159 0.841,20.000 1.875,20.000 L18.125,20.000 C19.159,20.000 20.000,19.159 20.000,18.125 C20.000,15.024 17.477,12.500 14.375,12.500 Z" class="cls-1"/>
</svg>
