<svg xmlns="http://www.w3.org/2000/svg" xmlns:xlink="http://www.w3.org/1999/xlink" preserveAspectRatio="xMidYMid" width="23" height="18" viewBox="0 0 23 18">
  <path d="M21.881,18.005 L7.932,18.005 C7.316,18.005 6.814,17.539 6.814,16.966 L6.814,14.096 C6.814,13.523 7.316,13.057 7.932,13.057 L21.882,13.057 C22.498,13.057 23.000,13.523 22.999,14.096 L22.999,16.966 C22.999,17.539 22.498,18.005 21.881,18.005 ZM22.041,14.096 C22.041,14.014 21.970,13.947 21.881,13.947 L7.932,13.947 C7.844,13.947 7.773,14.014 7.773,14.096 L7.773,16.966 C7.773,17.048 7.844,17.114 7.932,17.114 L21.881,17.114 C21.970,17.114 22.041,17.048 22.041,16.966 L22.041,14.096 ZM21.881,11.473 L7.932,11.473 C7.316,11.473 6.814,11.007 6.814,10.434 L6.814,7.564 C6.814,6.991 7.316,6.525 7.932,6.525 L21.882,6.525 C22.498,6.525 23.000,6.991 22.999,7.564 L22.999,10.434 C22.999,11.007 22.498,11.473 21.881,11.473 ZM22.041,7.564 C22.041,7.482 21.970,7.415 21.881,7.415 L7.932,7.415 C7.844,7.415 7.773,7.482 7.773,7.564 L7.773,10.434 C7.773,10.516 7.844,10.582 7.932,10.582 L21.881,10.582 C21.970,10.582 22.041,10.516 22.041,10.434 L22.041,7.564 ZM21.881,4.941 L7.932,4.941 C7.316,4.941 6.814,4.475 6.814,3.902 L6.814,1.032 C6.814,0.459 7.316,-0.007 7.932,-0.007 L21.882,-0.007 C22.498,-0.007 23.000,0.459 22.999,1.032 L22.999,3.902 C22.999,4.475 22.498,4.941 21.881,4.941 ZM22.041,1.032 C22.041,0.950 21.970,0.883 21.881,0.883 L7.932,0.883 C7.844,0.883 7.773,0.950 7.773,1.032 L7.773,3.902 C7.773,3.984 7.844,4.050 7.932,4.050 L21.881,4.050 C21.970,4.050 22.041,3.984 22.041,3.902 L22.041,1.032 ZM4.206,18.005 L1.118,18.005 C0.501,18.005 -0.000,17.539 -0.000,16.966 L-0.000,14.096 C-0.000,13.523 0.501,13.057 1.118,13.057 L4.206,13.057 C4.822,13.057 5.324,13.523 5.324,14.096 L5.324,16.966 C5.324,17.539 4.822,18.005 4.206,18.005 ZM4.365,14.096 C4.365,14.014 4.294,13.947 4.206,13.947 L1.118,13.947 C1.030,13.947 0.958,14.014 0.958,14.096 L0.958,16.966 C0.958,17.048 1.030,17.114 1.118,17.114 L4.206,17.114 C4.294,17.114 4.365,17.048 4.365,16.966 L4.365,14.096 ZM4.206,11.473 L1.118,11.473 C0.501,11.473 -0.000,11.007 -0.000,10.434 L-0.000,7.564 C-0.000,6.991 0.501,6.525 1.118,6.525 L4.206,6.525 C4.822,6.525 5.324,6.991 5.324,7.564 L5.324,10.434 C5.324,11.007 4.822,11.473 4.206,11.473 ZM4.365,7.564 C4.365,7.482 4.294,7.415 4.206,7.415 L1.118,7.415 C1.030,7.415 0.958,7.482 0.958,7.564 L0.958,10.434 C0.958,10.516 1.030,10.582 1.118,10.582 L4.206,10.582 C4.294,10.582 4.365,10.516 4.365,10.434 L4.365,7.564 ZM4.206,4.941 L1.118,4.941 C0.501,4.941 -0.000,4.475 -0.000,3.902 L-0.000,1.032 C-0.000,0.459 0.501,-0.007 1.118,-0.007 L4.206,-0.007 C4.822,-0.007 5.324,0.459 5.324,1.032 L5.324,3.902 C5.324,4.475 4.822,4.941 4.206,4.941 ZM4.365,1.032 C4.365,0.950 4.294,0.883 4.206,0.883 L1.118,0.883 C1.030,0.883 0.958,0.950 0.958,1.032 L0.958,3.902 C0.958,3.984 1.030,4.050 1.118,4.050 L4.206,4.050 C4.294,4.050 4.365,3.984 4.365,3.902 L4.365,1.032 Z" class="cls-1"/>
</svg>
