<svg xmlns="http://www.w3.org/2000/svg" xmlns:xlink="http://www.w3.org/1999/xlink" preserveAspectRatio="xMidYMid" width="21" height="20" viewBox="0 0 21 20">
  <path d="M20.952,7.417 C20.895,7.155 20.644,6.996 20.370,6.996 L13.397,6.996 L11.114,0.422 C11.015,0.136 10.818,-0.000 10.509,-0.000 C10.201,-0.000 9.992,0.136 9.893,0.422 L7.611,6.996 L0.638,6.996 C0.329,6.996 0.135,7.132 0.033,7.417 C-0.047,7.725 0.020,7.954 0.238,8.124 L5.830,12.487 L3.799,19.175 C3.710,19.469 3.799,19.711 4.027,19.882 C4.278,20.030 4.541,20.048 4.780,19.882 L10.509,15.894 L16.227,19.882 C16.349,19.967 16.478,19.996 16.604,19.996 C16.958,19.996 17.231,19.722 17.231,19.369 C17.231,19.312 17.224,19.231 17.186,19.107 L15.177,12.487 L20.769,8.124 C20.994,7.948 21.055,7.713 20.952,7.417 ZM14.059,11.758 C13.866,11.908 13.772,12.199 13.842,12.430 L15.463,17.797 L10.852,14.606 C10.620,14.446 10.379,14.452 10.156,14.606 L5.545,17.797 L7.166,12.430 C7.236,12.199 7.141,11.908 6.949,11.758 L2.464,8.260 L8.079,8.260 C8.364,8.260 8.561,8.125 8.661,7.839 L10.509,2.541 L12.347,7.839 C12.446,8.125 12.644,8.260 12.940,8.260 L18.544,8.260 L14.059,11.758 Z" class="cls-1"/>
</svg>
