<svg xmlns="http://www.w3.org/2000/svg" xmlns:xlink="http://www.w3.org/1999/xlink" preserveAspectRatio="xMidYMid" width="10" height="10" viewBox="0 0 10 10">
 
  <path d="M3.349,9.436 L3.349,8.445 L9.999,8.445 L9.999,9.436 L3.349,9.436 ZM3.349,4.623 L9.999,4.623 L9.999,5.614 L3.349,5.614 L3.349,4.623 ZM3.349,0.504 L9.999,0.504 L9.999,1.495 L3.349,1.495 L3.349,0.504 ZM0.996,10.000 C0.447,10.000 0.001,9.552 0.001,8.999 C0.001,8.447 0.447,7.998 0.996,7.998 C1.545,7.998 1.991,8.447 1.991,8.999 C1.991,9.552 1.545,10.000 0.996,10.000 ZM0.996,5.960 C0.447,5.960 0.001,5.512 0.001,4.960 C0.001,4.407 0.447,3.958 0.996,3.958 C1.545,3.958 1.991,4.408 1.991,4.960 C1.991,5.512 1.545,5.960 0.996,5.960 ZM0.996,2.001 C0.447,2.001 0.001,1.552 0.001,1.000 C0.001,0.447 0.447,-0.002 0.996,-0.002 C1.545,-0.002 1.991,0.447 1.991,1.000 C1.991,1.552 1.545,2.001 0.996,2.001 Z"/>
</svg>
