<svg xmlns="http://www.w3.org/2000/svg" xmlns:xlink="http://www.w3.org/1999/xlink" preserveAspectRatio="xMidYMid" width="45" height="35" viewBox="0 0 45 35">
  <path d="M42.811,35.010 L15.520,35.010 C14.314,35.010 13.332,34.103 13.332,32.989 L13.332,27.409 C13.332,26.295 14.314,25.388 15.520,25.388 L42.812,25.388 C44.018,25.388 45.000,26.295 44.999,27.409 L44.999,32.989 C44.999,34.103 44.017,35.010 42.811,35.010 ZM43.124,27.409 C43.124,27.250 42.984,27.120 42.811,27.120 L15.520,27.120 C15.347,27.120 15.207,27.250 15.207,27.409 L15.207,32.989 C15.207,33.149 15.347,33.278 15.520,33.278 L42.811,33.278 C42.984,33.278 43.124,33.149 43.124,32.989 L43.124,27.409 ZM42.811,22.309 L15.520,22.309 C14.314,22.309 13.332,21.402 13.332,20.288 L13.332,14.708 C13.332,13.594 14.314,12.687 15.520,12.687 L42.812,12.687 C44.018,12.687 45.000,13.594 44.999,14.708 L44.999,20.288 C44.999,21.402 44.017,22.309 42.811,22.309 ZM43.124,14.708 C43.124,14.548 42.984,14.419 42.811,14.419 L15.520,14.419 C15.347,14.419 15.207,14.548 15.207,14.708 L15.207,20.288 C15.207,20.448 15.347,20.577 15.520,20.577 L42.811,20.577 C42.984,20.577 43.124,20.448 43.124,20.288 L43.124,14.708 ZM42.811,9.608 L15.520,9.608 C14.314,9.608 13.332,8.701 13.332,7.587 L13.332,2.006 C13.332,0.893 14.314,-0.014 15.520,-0.014 L42.812,-0.014 C44.018,-0.014 45.000,0.893 44.999,2.006 L44.999,7.587 C44.999,8.701 44.017,9.608 42.811,9.608 ZM43.124,2.006 C43.124,1.847 42.984,1.718 42.811,1.718 L15.520,1.718 C15.347,1.718 15.207,1.847 15.207,2.006 L15.207,7.587 C15.207,7.747 15.347,7.876 15.520,7.876 L42.811,7.876 C42.984,7.876 43.124,7.747 43.124,7.587 L43.124,2.006 ZM8.229,35.010 L2.187,35.010 C0.981,35.010 -0.000,34.103 -0.000,32.989 L-0.000,27.409 C-0.000,26.295 0.981,25.388 2.187,25.388 L8.229,25.388 C9.435,25.388 10.416,26.295 10.416,27.409 L10.416,32.989 C10.416,34.103 9.435,35.010 8.229,35.010 ZM8.541,27.409 C8.541,27.250 8.401,27.120 8.229,27.120 L2.187,27.120 C2.015,27.120 1.875,27.250 1.875,27.409 L1.875,32.989 C1.875,33.149 2.015,33.278 2.187,33.278 L8.229,33.278 C8.401,33.278 8.541,33.149 8.541,32.989 L8.541,27.409 ZM8.229,22.309 L2.187,22.309 C0.981,22.309 -0.000,21.402 -0.000,20.288 L-0.000,14.708 C-0.000,13.594 0.981,12.687 2.187,12.687 L8.229,12.687 C9.435,12.687 10.416,13.594 10.416,14.708 L10.416,20.288 C10.416,21.402 9.435,22.309 8.229,22.309 ZM8.541,14.708 C8.541,14.548 8.401,14.419 8.229,14.419 L2.187,14.419 C2.015,14.419 1.875,14.548 1.875,14.708 L1.875,20.288 C1.875,20.448 2.015,20.577 2.187,20.577 L8.229,20.577 C8.401,20.577 8.541,20.448 8.541,20.288 L8.541,14.708 ZM8.229,9.608 L2.187,9.608 C0.981,9.608 -0.000,8.701 -0.000,7.587 L-0.000,2.006 C-0.000,0.893 0.981,-0.014 2.187,-0.014 L8.229,-0.014 C9.435,-0.014 10.416,0.893 10.416,2.006 L10.416,7.587 C10.416,8.701 9.435,9.608 8.229,9.608 ZM8.541,2.006 C8.541,1.847 8.401,1.718 8.229,1.718 L2.187,1.718 C2.015,1.718 1.875,1.847 1.875,2.006 L1.875,7.587 C1.875,7.747 2.015,7.876 2.187,7.876 L8.229,7.876 C8.401,7.876 8.541,7.747 8.541,7.587 L8.541,2.006 Z" class="cls-1"/>
</svg>
