<svg xmlns="http://www.w3.org/2000/svg" xmlns:xlink="http://www.w3.org/1999/xlink" preserveAspectRatio="xMidYMid" width="31" height="30" viewBox="0 0 31 30">
 <path d="M17.172,30.009 L13.962,30.009 C13.350,30.009 13.173,30.009 11.506,25.930 L10.393,25.482 C6.967,27.020 6.555,27.020 6.378,27.020 C6.151,27.020 5.897,26.923 5.737,26.765 L3.467,24.567 C3.014,24.126 2.898,24.013 4.699,19.973 L4.250,18.926 C0.013,17.426 0.013,17.245 0.013,16.619 L0.013,13.508 C0.013,12.886 0.013,12.727 4.236,11.111 L4.684,10.061 C2.783,6.098 2.914,5.971 3.371,5.527 L5.644,3.329 C5.804,3.174 6.059,3.077 6.283,3.077 C6.448,3.077 6.877,3.077 10.362,4.532 L11.467,4.087 C13.018,-0.010 13.214,-0.010 13.827,-0.010 L17.038,-0.010 C17.649,-0.010 17.827,-0.010 19.493,4.073 L20.604,4.516 C24.028,2.982 24.440,2.982 24.619,2.982 C24.845,2.982 25.097,3.079 25.257,3.233 L27.533,5.428 C27.976,5.860 28.101,5.982 26.301,10.023 L26.749,11.077 C30.987,12.573 30.987,12.753 30.987,13.378 L30.987,16.488 C30.987,17.111 30.984,17.272 26.762,18.888 L26.316,19.939 C28.217,23.897 28.086,24.026 27.634,24.471 L25.355,26.673 C25.193,26.829 24.940,26.926 24.716,26.926 L24.716,26.926 C24.554,26.926 24.127,26.926 20.642,25.468 L19.532,25.913 C17.981,30.009 17.801,30.009 17.172,30.009 ZM14.424,28.312 L16.699,28.312 C17.002,27.670 17.587,26.220 18.056,24.969 C18.140,24.748 18.315,24.568 18.537,24.480 L20.328,23.762 C20.537,23.677 20.776,23.680 20.987,23.769 C22.274,24.309 23.795,24.916 24.484,25.145 L26.076,23.600 C25.821,22.932 25.175,21.518 24.600,20.327 C24.497,20.110 24.489,19.856 24.585,19.632 L25.321,17.900 C25.412,17.688 25.587,17.520 25.803,17.438 C27.100,16.943 28.609,16.330 29.271,16.021 L29.271,13.860 C28.601,13.566 27.104,13.004 25.816,12.552 C25.589,12.473 25.405,12.303 25.311,12.082 L24.574,10.347 C24.484,10.130 24.484,9.886 24.581,9.672 C25.132,8.442 25.747,6.988 25.989,6.311 L24.394,4.771 C23.711,5.014 22.230,5.646 20.977,6.210 C20.766,6.307 20.519,6.313 20.300,6.225 L18.511,5.510 C18.295,5.424 18.120,5.253 18.035,5.039 C17.525,3.783 16.896,2.323 16.574,1.686 L14.299,1.686 C13.995,2.329 13.412,3.779 12.943,5.027 C12.862,5.252 12.685,5.431 12.462,5.519 L10.677,6.237 C10.465,6.322 10.228,6.320 10.017,6.231 C8.730,5.690 7.204,5.085 6.516,4.859 L4.923,6.400 C5.180,7.069 5.823,8.483 6.398,9.676 C6.504,9.894 6.507,10.147 6.413,10.372 L5.672,12.103 C5.581,12.316 5.409,12.483 5.191,12.565 C3.894,13.060 2.388,13.669 1.728,13.979 L1.728,16.140 C2.394,16.437 3.893,17.000 5.182,17.454 C5.409,17.535 5.592,17.706 5.684,17.924 L6.420,19.655 C6.513,19.869 6.509,20.112 6.415,20.326 C5.863,21.558 5.249,23.013 5.007,23.688 L6.601,25.229 C7.283,24.984 8.764,24.353 10.016,23.790 C10.230,23.693 10.475,23.688 10.694,23.774 L12.484,24.493 C12.702,24.578 12.872,24.748 12.958,24.962 C13.471,26.217 14.101,27.677 14.424,28.312 ZM15.500,20.387 C12.441,20.387 9.950,17.968 9.950,15.000 C9.950,12.033 12.441,9.618 15.500,9.618 C18.558,9.618 21.047,12.033 21.047,15.000 C21.047,17.968 18.558,20.387 15.500,20.387 ZM15.500,11.314 C13.387,11.314 11.668,12.968 11.668,15.000 C11.668,17.036 13.387,18.691 15.500,18.691 C17.613,18.691 19.331,17.036 19.331,15.000 C19.331,12.967 17.613,11.314 15.500,11.314 Z" />
</svg>
