<svg xmlns="http://www.w3.org/2000/svg" xmlns:xlink="http://www.w3.org/1999/xlink" preserveAspectRatio="xMidYMid" width="15" height="13" viewBox="0 0 15 13">
  <path d="M14.569,7.116 C15.329,6.374 15.094,4.873 13.779,4.873 L10.318,4.875 C10.449,4.156 10.639,2.964 10.632,2.851 C10.559,1.785 9.867,0.487 9.837,0.434 C9.710,0.203 9.072,-0.110 8.431,0.024 C7.601,0.199 7.516,0.718 7.520,0.861 C7.520,0.861 7.555,2.282 7.559,2.662 C7.162,3.517 5.795,5.764 5.380,5.937 C5.281,5.878 5.168,5.846 5.051,5.846 L0.679,5.846 C0.307,5.846 0.009,6.141 0.009,6.504 L0.009,12.435 C0.035,12.754 0.312,13.005 0.639,13.005 L4.566,13.005 C4.914,13.005 5.198,12.727 5.198,12.385 L5.198,12.188 C5.198,12.188 5.344,12.178 5.410,12.219 C5.663,12.377 5.974,12.575 6.382,12.575 L12.242,12.575 C14.433,12.575 14.198,10.666 13.999,10.406 C14.368,10.011 14.597,9.312 14.285,8.761 C14.525,8.512 14.947,7.826 14.569,7.116 ZM4.431,12.384 L0.638,12.384 L0.638,6.466 L4.431,6.466 L4.431,12.384 ZM13.547,7.065 L13.511,7.211 C14.521,7.493 13.983,8.635 13.259,8.710 L13.223,8.856 C14.191,9.097 13.730,10.274 12.972,10.354 L12.935,10.499 C13.726,10.627 13.535,11.951 12.337,11.951 L6.376,11.954 C5.955,11.954 5.571,11.483 5.262,11.483 L4.991,11.483 L4.991,6.927 C5.328,6.722 5.742,6.456 5.972,6.264 C6.407,5.900 8.186,3.078 8.186,2.725 C8.186,2.372 8.147,0.844 8.147,0.844 C8.147,0.844 8.496,0.402 9.275,0.724 C9.275,0.724 9.931,1.931 9.998,2.892 C9.998,2.892 9.702,4.873 9.544,5.494 L13.677,5.494 C14.692,5.496 14.498,6.918 13.547,7.065 Z" />
</svg>
