<svg xmlns="http://www.w3.org/2000/svg" xmlns:xlink="http://www.w3.org/1999/xlink" preserveAspectRatio="xMidYMid" width="25" height="17" viewBox="0 0 25 17">
  <path d="M0.877,11.327 L0.877,1.035 C0.877,0.464 1.356,-0.000 1.947,-0.000 L12.578,-0.000 C13.169,-0.000 13.649,0.464 13.649,1.035 L13.649,11.327 C13.649,11.517 13.489,11.672 13.292,11.672 L1.234,11.672 C1.037,11.672 0.877,11.517 0.877,11.327 ZM9.462,14.852 C9.462,16.038 8.468,17.000 7.242,17.000 C6.017,17.000 5.023,16.038 5.023,14.852 C5.023,13.666 6.017,12.705 7.242,12.705 C8.468,12.705 9.462,13.666 9.462,14.852 ZM8.352,14.852 C8.352,14.259 7.855,13.778 7.242,13.778 C6.629,13.778 6.132,14.259 6.132,14.852 C6.132,15.445 6.629,15.926 7.242,15.926 C7.855,15.926 8.352,15.445 8.352,14.852 ZM5.331,12.705 L0.357,12.705 C0.160,12.705 -0.000,12.859 -0.000,13.050 L-0.000,14.097 C-0.000,14.288 0.160,14.442 0.357,14.442 L4.343,14.442 C4.448,13.751 4.808,13.141 5.331,12.705 ZM21.076,14.852 C21.076,16.038 20.082,17.000 18.856,17.000 C17.630,17.000 16.636,16.038 16.636,14.852 C16.636,13.666 17.630,12.705 18.856,12.705 C20.082,12.705 21.076,13.666 21.076,14.852 ZM19.966,14.852 C19.966,14.259 19.469,13.778 18.856,13.778 C18.243,13.778 17.746,14.259 17.746,14.852 C17.746,15.445 18.243,15.926 18.856,15.926 C19.469,15.926 19.966,15.445 19.966,14.852 ZM25.000,13.050 L25.000,14.097 C25.000,14.288 24.840,14.442 24.643,14.442 L21.755,14.442 C21.548,13.071 20.329,12.014 18.856,12.014 C17.383,12.014 16.164,13.071 15.957,14.442 L10.141,14.442 C10.037,13.751 9.677,13.141 9.154,12.705 L14.669,12.705 L14.669,2.832 C14.669,2.451 14.988,2.142 15.382,2.142 L18.750,2.142 C19.698,2.142 20.585,2.597 21.115,3.358 L23.286,6.469 C23.605,6.926 23.775,7.464 23.775,8.014 L23.775,12.705 L24.643,12.705 C24.840,12.705 25.000,12.859 25.000,13.050 ZM21.381,6.549 L19.645,4.162 C19.578,4.070 19.469,4.015 19.353,4.015 L16.645,4.015 C16.448,4.015 16.288,4.170 16.288,4.361 L16.288,6.748 C16.288,6.938 16.448,7.093 16.645,7.093 L21.089,7.093 C21.378,7.093 21.547,6.778 21.381,6.549 Z" />
</svg>
