<svg xmlns="http://www.w3.org/2000/svg" xmlns:xlink="http://www.w3.org/1999/xlink" preserveAspectRatio="xMidYMid" width="16" height="20" viewBox="0 0 16 20">
 <path d="M0.003,20.000 L0.003,-0.001 L13.025,-0.001 L15.996,2.774 L15.996,20.000 L0.003,20.000 ZM14.613,3.444 L12.312,3.444 L12.312,1.331 L1.386,1.331 L1.386,18.668 L14.613,18.668 L14.613,3.444 ZM3.338,9.589 L3.445,9.708 C3.447,9.710 3.449,9.714 3.452,9.717 C3.626,9.417 3.831,9.133 4.032,8.856 L4.196,8.628 C4.378,8.371 4.824,8.411 4.967,8.673 C5.038,8.802 5.026,8.955 4.936,9.083 C4.872,9.173 4.805,9.264 4.737,9.357 C4.445,9.755 4.143,10.168 3.996,10.590 C3.934,10.768 3.765,10.888 3.574,10.888 C3.464,10.888 3.357,10.847 3.273,10.773 C3.102,10.622 2.952,10.454 2.807,10.291 L2.695,10.166 C2.579,10.038 2.552,9.862 2.625,9.708 C2.750,9.442 3.138,9.369 3.338,9.589 ZM3.338,12.684 L3.445,12.803 C3.447,12.805 3.449,12.809 3.452,12.811 C3.626,12.512 3.831,12.228 4.032,11.951 L4.196,11.723 C4.378,11.466 4.824,11.506 4.967,11.767 C5.038,11.897 5.026,12.050 4.936,12.177 C4.872,12.267 4.805,12.359 4.737,12.451 C4.445,12.850 4.143,13.263 3.996,13.685 C3.934,13.863 3.765,13.983 3.574,13.983 C3.464,13.983 3.357,13.941 3.273,13.867 C3.102,13.717 2.952,13.549 2.807,13.386 L2.695,13.261 C2.579,13.133 2.552,12.957 2.625,12.803 C2.750,12.537 3.138,12.463 3.338,12.684 ZM3.338,15.843 L3.445,15.962 C3.447,15.964 3.449,15.967 3.452,15.971 C3.626,15.671 3.831,15.387 4.032,15.110 L4.196,14.882 C4.378,14.625 4.824,14.666 4.967,14.927 C5.038,15.056 5.026,15.209 4.936,15.337 C4.872,15.426 4.805,15.518 4.737,15.611 C4.445,16.009 4.143,16.422 3.996,16.844 C3.934,17.021 3.765,17.142 3.574,17.142 C3.464,17.142 3.357,17.101 3.273,17.026 C3.102,16.876 2.952,16.707 2.807,16.545 L2.695,16.420 C2.579,16.292 2.552,16.116 2.625,15.962 C2.750,15.696 3.138,15.622 3.338,15.843 ZM3.852,7.864 C3.741,7.864 3.633,7.823 3.549,7.749 C3.379,7.598 3.229,7.430 3.084,7.268 L2.971,7.142 C2.855,7.014 2.828,6.839 2.901,6.684 C3.027,6.418 3.414,6.345 3.615,6.566 L3.721,6.684 C3.724,6.687 3.727,6.690 3.729,6.693 C3.902,6.394 4.108,6.109 4.309,5.833 L4.472,5.605 C4.655,5.348 5.100,5.387 5.243,5.649 C5.314,5.779 5.304,5.932 5.214,6.059 C5.150,6.149 5.082,6.240 5.015,6.333 C4.722,6.732 4.419,7.144 4.273,7.567 C4.211,7.744 4.042,7.864 3.852,7.864 ZM6.984,6.253 C9.943,6.253 9.674,6.253 12.632,6.253 C13.375,6.253 13.375,7.363 12.632,7.363 C9.674,7.363 9.943,7.363 6.984,7.363 C6.242,7.363 6.242,6.253 6.984,6.253 ZM6.984,9.323 C9.943,9.323 9.674,9.323 12.632,9.323 C13.375,9.323 13.375,10.433 12.632,10.433 C9.674,10.433 9.943,10.433 6.984,10.433 C6.242,10.433 6.242,9.323 6.984,9.323 ZM6.984,12.201 C9.943,12.201 9.674,12.201 12.632,12.201 C13.375,12.201 13.375,13.311 12.632,13.311 C9.674,13.311 9.943,13.311 6.984,13.311 C6.242,13.311 6.242,12.201 6.984,12.201 ZM6.984,15.272 C9.943,15.272 9.674,15.272 12.632,15.272 C13.375,15.272 13.375,16.382 12.632,16.382 C9.674,16.382 9.943,16.382 6.984,16.382 C6.242,16.382 6.242,15.272 6.984,15.272 Z" />
</svg>
