<svg xmlns="http://www.w3.org/2000/svg" xmlns:xlink="http://www.w3.org/1999/xlink" preserveAspectRatio="xMidYMid" width="36" height="47" viewBox="0 0 36 47">
  <path d="M0.001,8.559 L0.001,5.593 M0.007,3.800 C0.123,1.684 1.799,-0.000 3.843,-0.000 L32.157,-0.000 C34.275,-0.000 35.999,1.809 35.999,4.034 L35.999,42.966 C35.999,45.190 34.275,47.000 32.157,47.000 L3.843,47.000 C1.799,47.000 0.123,45.316 0.007,43.200 M0.001,41.407 L0.001,43.663 M0.001,41.870 L0.001,38.904 M0.001,37.112 L0.001,34.145 M0.001,32.352 L0.001,29.386 M0.001,27.594 L0.001,24.627 M0.001,22.835 L0.001,19.869 M0.001,18.076 L0.001,15.110 M0.001,13.317 L0.001,10.351 M1.720,43.201 L1.720,43.200 C1.832,44.326 2.741,45.207 3.843,45.207 L32.156,45.207 C33.334,45.207 34.291,44.202 34.291,42.966 L34.291,4.034 C34.291,2.798 33.334,1.793 32.156,1.793 L3.843,1.793 C2.741,1.793 1.832,2.674 1.720,3.800 M1.709,5.593 L1.709,8.559 M1.709,10.352 L1.709,13.318 M1.709,15.111 L1.709,18.077 M1.709,19.869 L1.709,22.835 M1.709,24.628 L1.709,27.595 M1.709,29.387 L1.709,32.353 M1.709,34.146 L1.709,37.112 M1.709,38.905 L1.709,41.871 M1.709,43.664 L1.709,41.408 M7.357,39.747 C7.130,39.747 6.912,39.652 6.752,39.482 L5.180,37.822 C4.848,37.471 4.849,36.904 5.184,36.555 C5.518,36.206 6.059,36.207 6.391,36.559 L7.298,37.517 L9.940,34.155 C10.240,33.773 10.779,33.719 11.142,34.034 C11.506,34.349 11.558,34.914 11.258,35.296 L8.016,39.421 C7.862,39.616 7.638,39.735 7.397,39.746 C7.383,39.747 7.370,39.747 7.357,39.747 ZM30.280,37.685 L15.703,37.685 C15.231,37.685 14.849,37.283 14.849,36.788 C14.849,36.293 15.231,35.892 15.703,35.892 L30.280,35.892 C30.752,35.892 31.134,36.293 31.134,36.788 C31.134,37.283 30.752,37.685 30.280,37.685 ZM7.357,30.151 C7.130,30.151 6.912,30.056 6.751,29.886 L5.180,28.226 C4.847,27.875 4.849,27.307 5.183,26.958 C5.518,26.610 6.058,26.611 6.391,26.962 L7.298,27.921 L9.940,24.559 C10.240,24.177 10.779,24.123 11.142,24.438 C11.506,24.753 11.557,25.318 11.257,25.700 L8.016,29.825 C7.862,30.020 7.637,30.138 7.397,30.150 C7.383,30.150 7.370,30.151 7.357,30.151 ZM30.280,28.088 L15.703,28.088 C15.231,28.088 14.849,27.687 14.849,27.192 C14.849,26.697 15.231,26.296 15.703,26.296 L30.280,26.296 C30.752,26.296 31.134,26.697 31.134,27.192 C31.134,27.687 30.752,28.088 30.280,28.088 ZM7.357,20.554 C7.130,20.554 6.912,20.460 6.751,20.290 L5.180,18.630 C4.847,18.278 4.849,17.711 5.183,17.362 C5.518,17.013 6.058,17.015 6.391,17.366 L7.298,18.324 L9.940,14.963 C10.240,14.581 10.779,14.527 11.142,14.842 C11.506,15.157 11.557,15.721 11.257,16.104 L8.016,20.229 C7.862,20.424 7.637,20.542 7.397,20.554 C7.383,20.554 7.370,20.554 7.357,20.554 ZM30.280,18.492 L15.703,18.492 C15.231,18.492 14.849,18.090 14.849,17.595 C14.849,17.100 15.231,16.699 15.703,16.699 L30.280,16.699 C30.752,16.699 31.134,17.100 31.134,17.595 C31.134,18.090 30.752,18.492 30.280,18.492 ZM7.357,10.958 C7.130,10.958 6.912,10.863 6.751,10.693 L5.180,9.033 C4.847,8.682 4.849,8.114 5.183,7.765 C5.518,7.417 6.058,7.418 6.391,7.769 L7.298,8.728 L9.940,5.366 C10.240,4.985 10.779,4.930 11.142,5.245 C11.506,5.560 11.557,6.125 11.257,6.507 L8.016,10.632 C7.862,10.827 7.637,10.946 7.397,10.957 C7.383,10.958 7.370,10.958 7.357,10.958 ZM30.280,8.895 L15.703,8.895 C15.231,8.895 14.849,8.494 14.849,7.999 C14.849,7.504 15.231,7.103 15.703,7.103 L30.280,7.103 C30.752,7.103 31.134,7.504 31.134,7.999 C31.134,8.494 30.752,8.895 30.280,8.895 Z" class="cls-1"/>
</svg>
